<svg width="34" height="46" viewBox="0 0 34 46" fill="none" xmlns="http://www.w3.org/2000/svg">
<g clip-path="url(#clip0_37_143)">
<path d="M2.83333 0C1.26615 0 0 1.26615 0 2.83333C0 4.40052 1.26615 5.66667 2.83333 5.66667V6.64063C2.83333 10.3948 4.32969 13.9984 6.98594 16.6547L12.9891 22.6667L6.98594 28.6786C4.32969 31.3349 2.83333 34.9385 2.83333 38.6927V39.6667C1.26615 39.6667 0 40.9328 0 42.5C0 44.0672 1.26615 45.3333 2.83333 45.3333H31.1667C32.7339 45.3333 34 44.0672 34 42.5C34 40.9328 32.7339 39.6667 31.1667 39.6667V38.6927C31.1667 34.9385 29.6703 31.3349 27.0141 28.6786L21.0109 22.6667L27.0229 16.6547C29.6792 13.9984 31.1755 10.3948 31.1755 6.64063V5.66667C32.7427 5.66667 34.0089 4.40052 34.0089 2.83333C34.0089 1.26615 32.7427 0 31.1755 0H2.83333ZM25.5 38.6927V39.6667H8.5V38.6927C8.5 36.4349 9.39427 34.2745 10.988 32.6807L17 26.6776L23.012 32.6896C24.6057 34.2833 25.5 36.4438 25.5 38.7016V38.6927Z" fill="white"/>
</g>
<defs>
<clipPath id="clip0_37_143">
<rect width="34" height="45.3333" fill="white"/>
</clipPath>
</defs>
</svg>
