<svg width="124" height="168" viewBox="0 0 124 168" fill="none" xmlns="http://www.w3.org/2000/svg">
<path d="M57.2075 68.819C47.8655 68.819 40.8688 66.5317 36.4033 62.0124C30.7827 56.3238 30.9605 48.9346 31.0205 46.5065L31.0288 46.0849C31.0288 44.9444 31.9523 44.0187 33.095 44.0187L33.4297 44.0124C44.557 43.7581 50.7314 47.4528 53.9464 50.5957C57.9344 54.4948 59.9573 59.9294 59.9573 66.7484C59.9573 67.8788 59.0461 68.8004 57.9158 68.8147C57.6787 68.819 57.4409 68.819 57.2075 68.819Z" fill="#91CF96"/>
<path d="M55.9805 100.183C52.3726 100.183 49.2586 99.3727 46.6714 97.7588C41.0448 94.2439 39.7946 88.1625 39.3834 86.1624L39.3214 85.8689C39.0713 84.7676 39.7512 83.6704 40.8484 83.4016L41.024 83.3583C47.4773 81.6908 53.4098 82.2279 57.7283 84.8606C61.611 87.2266 64.2041 91.1836 65.4398 96.6182C65.6878 97.7113 65.0204 98.8002 63.9375 99.0792C61.0678 99.8149 58.4126 100.183 55.9805 100.183Z" fill="#91CF96"/>
<path d="M81.2368 108.935C77.753 108.935 73.7897 107.892 69.3821 105.811C68.3614 105.327 67.9149 104.113 68.3861 103.083C70.7253 97.967 74.0004 94.6691 78.1208 93.2785C82.5614 91.7825 87.7335 92.5903 93.5008 95.6775L93.8582 95.8656C94.8811 96.3492 95.346 97.5725 94.8748 98.6036C94.8292 98.7048 94.7736 98.8453 94.7053 99.0189C93.9551 100.887 91.9653 105.854 86.5576 107.981C84.9379 108.617 83.1607 108.935 81.2368 108.935Z" fill="#91CF96"/>
<path d="M73.0483 86.1871C70.0212 86.1871 66.7335 85.749 63.1918 84.8707C62.0946 84.5981 61.4209 83.4946 61.6793 82.3933C67.12 59.2461 90.8004 64.1082 93.4846 64.7364C94.0178 64.8625 94.4806 65.195 94.7678 65.6599C95.0572 66.127 95.148 66.6869 95.024 67.222L94.9351 67.6228C93.4268 74.7394 90.164 79.9134 85.2355 82.9987C81.8427 85.1231 77.7637 86.1871 73.0483 86.1871Z" fill="#91CF96"/>
<path d="M55.8241 118.404C55.4088 118.404 54.9913 118.28 54.6276 118.022C53.6977 117.361 53.4808 116.071 54.1399 115.142C54.8136 114.193 70.4539 91.6306 56.0224 67.8199C55.4313 66.8426 55.7412 65.5737 56.7188 64.9807C57.6942 64.3855 58.965 64.7039 59.5558 65.6771C75.4172 91.8495 57.6879 117.284 57.506 117.539C57.1031 118.103 56.4687 118.404 55.8241 118.404Z" fill="#5ABA63"/>
<path d="M57.8915 68.8149C57.2963 68.8149 56.7074 68.5587 56.2984 68.0647C52.7896 63.8206 49.0433 60.6983 44.5056 58.2329C43.5033 57.6874 43.1314 56.433 43.677 55.4288C44.2225 54.4287 45.4747 54.0568 46.4789 54.6002C51.496 57.3256 55.6266 60.7682 59.4824 65.4321C60.2098 66.3123 60.0859 67.6141 59.2076 68.3415C58.8213 68.6599 58.3564 68.8149 57.8915 68.8149Z" fill="#5ABA63"/>
<path d="M59.7519 111.152C59.2313 111.152 58.7085 110.956 58.3055 110.561C57.4914 109.763 57.4769 108.456 58.2767 107.639C61.2896 104.562 64.856 103.48 69.3731 102.108L69.7346 101.998C70.8235 101.661 71.9808 102.283 72.3135 103.374C72.644 104.467 72.0282 105.62 70.9373 105.951L70.5736 106.063C66.4677 107.309 63.5026 108.21 61.2276 110.532C60.8244 110.943 60.2871 111.152 59.7519 111.152Z" fill="#5ABA63"/>
<path d="M70.2673 106.009C69.513 106.009 68.7858 105.594 68.4199 104.875C67.9054 103.856 68.3146 102.614 69.3333 102.098C72.6786 100.407 75.9499 99.3122 79.3262 98.7501C80.4585 98.562 81.5164 99.3226 81.7046 100.449C81.8905 101.575 81.1302 102.639 80.0039 102.825C77.0037 103.325 74.2056 104.265 71.1972 105.788C70.8998 105.937 70.5794 106.009 70.2673 106.009Z" fill="#5ABA63"/>
<path d="M63.4227 99.1432C63.0486 99.1432 62.6725 99.0419 62.3316 98.831C61.5671 98.3537 60.8397 97.8888 60.1413 97.4425C58.2361 96.2255 56.5933 95.1758 54.8743 94.312C53.8556 93.7996 53.4444 92.5557 53.9589 91.5369C54.4713 90.5182 55.7133 90.1029 56.734 90.6194C58.6392 91.5803 60.4493 92.7354 62.3647 93.9606C63.0529 94.3987 63.7658 94.8532 64.518 95.3223C65.487 95.9276 65.7825 97.2026 65.1793 98.1697C64.7865 98.7981 64.1128 99.1432 63.4227 99.1432Z" fill="#5ABA63"/>
<path d="M63.692 84.932C62.9914 84.932 62.3076 84.5765 61.9211 83.9319C61.33 82.9546 61.6463 81.6857 62.6236 81.0968C64.2126 80.1382 65.7066 79.1545 67.1552 78.2019C71.3108 75.4661 75.2346 72.8831 80.1609 71.6597C81.2581 71.3849 82.3884 72.0585 82.6652 73.1681C82.9379 74.2757 82.2645 75.3956 81.1569 75.6724C76.9168 76.7241 73.4453 79.0076 69.4261 81.6545C67.932 82.6359 66.3968 83.6464 64.7562 84.6342C64.4232 84.8371 64.0554 84.932 63.692 84.932Z" fill="#5ABA63"/>
<path d="M35.1373 165.934H88.8627V124.607H35.1373V165.934Z" fill="#AF8066"/>
<path d="M88.8627 143.204L74.398 157.668L61.9999 145.27L49.6017 157.668L35.1373 143.204V130.806L49.6017 145.27L61.9999 132.872L74.398 145.27L88.8627 130.806V143.204Z" fill="#D9AA94"/>
<path d="M33.071 124.607H90.9289V116.341H33.071V124.607Z" fill="#D9AA94"/>
</svg>
