<svg width="124" height="168" viewBox="0 0 124 168" fill="none" xmlns="http://www.w3.org/2000/svg">
<path d="M55.9805 100.183C52.3726 100.183 49.2586 99.3727 46.6714 97.7587C41.0448 94.2439 39.7946 88.1625 39.3834 86.1624L39.3214 85.8689C39.0713 84.7676 39.7512 83.6704 40.8484 83.4016L41.024 83.3583C47.4773 81.6908 53.4098 82.2279 57.7283 84.8606C61.611 87.2266 64.2041 91.1836 65.4398 96.6182C65.6878 97.7113 65.0204 98.8002 63.9375 99.0792C61.0678 99.8148 58.4126 100.183 55.9805 100.183Z" fill="#91CF96"/>
<path d="M81.2368 108.935C77.753 108.935 73.7897 107.892 69.3821 105.811C68.3614 105.327 67.9149 104.113 68.3861 103.083C70.7253 97.967 74.0004 94.6691 78.1208 93.2785C82.5614 91.7825 87.7335 92.5903 93.5008 95.6775L93.8582 95.8656C94.8811 96.3492 95.346 97.5725 94.8748 98.6036C94.8292 98.7048 94.7736 98.8453 94.7053 99.0189C93.9551 100.887 91.9653 105.854 86.5576 107.981C84.9379 108.617 83.1607 108.935 81.2368 108.935Z" fill="#91CF96"/>
<path d="M59.752 111.152C59.2313 111.152 58.7085 110.956 58.3056 110.561C57.4915 109.763 57.477 108.456 58.2768 107.639C61.2896 104.562 64.856 103.48 69.3731 102.108L69.7346 101.998C70.8236 101.661 71.9808 102.283 72.3136 103.374C72.6441 104.467 72.0283 105.62 70.9374 105.951L70.5737 106.063C66.4678 107.309 63.5026 108.21 61.2276 110.532C60.8245 110.943 60.2871 111.152 59.752 111.152Z" fill="#5ABA63"/>
<path d="M62.073 96.4846C62.4484 96.1239 62.9615 95.9033 63.5255 95.9088C64.6652 95.92 65.5817 96.8531 65.5704 97.9959C65.5293 102.302 63.5255 105.5 61.4007 109.672L57.795 117.5C57.243 118.497 55.9775 118.85 54.9818 118.294C53.9862 117.735 53.6314 116.477 54.1891 115.483L57.7949 107.652C59.8925 103.909 61.4068 101.205 61.4382 97.9539C61.4441 97.3781 61.687 96.8553 62.073 96.4846Z" fill="#5ABA63"/>
<path d="M70.2674 106.009C69.5131 106.009 68.7859 105.594 68.42 104.875C67.9054 103.856 68.3146 102.614 69.3334 102.098C72.6787 100.407 75.9499 99.3122 79.3262 98.7501C80.4585 98.562 81.5165 99.3226 81.7046 100.449C81.8906 101.575 81.1303 102.639 80.004 102.825C77.0038 103.325 74.2057 104.265 71.1972 105.788C70.8999 105.937 70.5795 106.009 70.2674 106.009Z" fill="#5ABA63"/>
<path d="M63.4228 99.1431C63.0486 99.1431 62.6726 99.0419 62.3316 98.831C61.5672 98.3537 60.8397 97.8888 60.1414 97.4425C58.2361 96.2255 56.5934 95.1757 54.8743 94.312C53.8556 93.7996 53.4444 92.5557 53.959 91.5369C54.4714 90.5182 55.7134 90.1029 56.7341 90.6194C58.6393 91.5803 60.4494 92.7353 62.3648 93.9606C63.053 94.3987 63.7659 94.8532 64.518 95.3222C65.4871 95.9276 65.7825 97.2025 65.1793 98.1697C64.7866 98.7981 64.1129 99.1431 63.4228 99.1431Z" fill="#5ABA63"/>
<path d="M35.1373 165.934H88.8627V124.607H35.1373V165.934Z" fill="#AF8066"/>
<path d="M88.8627 143.204L74.398 157.668L61.9999 145.27L49.6017 157.668L35.1373 143.204V130.806L49.6017 145.27L61.9999 132.872L74.398 145.27L88.8627 130.806V143.204Z" fill="#D9AA94"/>
<path d="M33.071 124.607H90.9289V116.341H33.071V124.607Z" fill="#D9AA94"/>
</svg>
