<svg width="45" height="45" viewBox="0 0 45 45" fill="none" xmlns="http://www.w3.org/2000/svg">
<path fill-rule="evenodd" clip-rule="evenodd" d="M29.1281 5.265L39.735 15.87C40.0834 16.2182 40.3598 16.6317 40.5483 17.0868C40.7369 17.5418 40.8339 18.0296 40.8339 18.5222C40.8339 19.0148 40.7369 19.5025 40.5483 19.9576C40.3598 20.4127 40.0834 20.8261 39.735 21.1744L21.1725 39.7369C20.4693 40.4399 19.5156 40.8348 18.5213 40.8348C17.5269 40.8348 16.5732 40.4399 15.87 39.7369L5.26314 29.1281C4.56012 28.4249 4.16519 27.4712 4.16519 26.4769C4.16519 25.4825 4.56012 24.5289 5.26314 23.8256L23.8256 5.26312C24.5289 4.56011 25.4825 4.16517 26.4769 4.16517C27.4713 4.16517 28.4249 4.56011 29.1281 5.26312V5.265ZM39.735 29.13C40.0865 29.4816 40.284 29.9584 40.284 30.4556C40.284 30.9528 40.0865 31.4296 39.735 31.7813L31.7813 39.735C31.4297 40.0868 30.9527 40.2846 30.4554 40.2848C29.958 40.2849 29.4809 40.0875 29.1291 39.7359C28.7773 39.3844 28.5795 38.9074 28.5793 38.41C28.5791 37.9127 28.7766 37.4356 29.1281 37.0837L37.0838 29.13C37.4354 28.7785 37.9122 28.581 38.4094 28.581C38.9066 28.581 39.3834 28.7785 39.735 29.13ZM16.5338 25.815L15.2081 27.1406C15.0324 27.3164 14.9337 27.5548 14.9337 27.8034C14.9337 28.052 15.0324 28.2904 15.2081 28.4663L16.5338 29.7919C16.7096 29.9676 16.948 30.0664 17.1966 30.0664C17.4452 30.0664 17.6836 29.9676 17.8594 29.7919L19.185 28.4663C19.3608 28.2904 19.4595 28.052 19.4595 27.8034C19.4595 27.5548 19.3608 27.3164 19.185 27.1406L17.8594 25.815C17.6836 25.6392 17.4452 25.5405 17.1966 25.5405C16.948 25.5405 16.7096 25.6392 16.5338 25.815ZM15.87 5.265C16.2215 5.61661 16.419 6.09344 16.419 6.59062C16.419 7.08781 16.2215 7.56463 15.87 7.91625L7.91627 15.87C7.74218 16.0442 7.53549 16.1824 7.30799 16.2767C7.08049 16.3711 6.83664 16.4197 6.59037 16.4198C6.34409 16.4198 6.1002 16.3714 5.87264 16.2773C5.64507 16.1831 5.43828 16.045 5.26408 15.8709C5.08987 15.6969 4.95166 15.4902 4.85733 15.2627C4.763 15.0352 4.71441 14.7913 4.71432 14.545C4.71424 14.2988 4.76266 14.0549 4.85682 13.8273C4.95099 13.5997 5.08906 13.393 5.26314 13.2188L13.2188 5.265C13.5704 4.91349 14.0472 4.71602 14.5444 4.71602C15.0416 4.71602 15.5184 4.91349 15.87 5.265Z" fill="white"/>
</svg>
