<svg width="124" height="168" viewBox="0 0 124 168" fill="none" xmlns="http://www.w3.org/2000/svg">
<path d="M56.2034 70.4737C46.8615 70.4737 39.8648 68.1863 35.3993 63.667C29.7787 57.9784 29.9564 50.5892 30.0165 48.1611L30.0247 47.7395C30.0247 46.599 30.9483 45.6733 32.091 45.6733L32.4257 45.667C43.553 45.4127 49.7273 49.1075 52.9424 52.2503C56.9304 56.1495 58.9533 61.5841 58.9533 68.403C58.9533 69.5334 58.0421 70.455 56.9117 70.4693C56.6747 70.4737 56.4369 70.4737 56.2034 70.4737Z" fill="#91CF96"/>
<path d="M54.9764 101.837C51.3686 101.837 48.2546 101.027 45.6674 99.4134C40.0408 95.8986 38.7906 89.8172 38.3794 87.817L38.3174 87.5235C38.0673 86.4222 38.7472 85.3251 39.8444 85.0563L40.02 85.0129C46.4733 83.3455 52.4058 83.8826 56.7243 86.5152C60.6069 88.8813 63.2001 92.8383 64.4358 98.2729C64.6838 99.3659 64.0164 100.455 62.9335 100.734C60.0638 101.47 57.4086 101.837 54.9764 101.837Z" fill="#91CF96"/>
<path d="M80.2328 110.59C76.749 110.59 72.7857 109.546 68.378 107.466C67.3574 106.982 66.9109 105.767 67.3821 104.738C69.7213 99.6217 72.9964 96.3238 77.1168 94.9332C81.5574 93.4372 86.7295 94.245 92.4968 97.3322L92.8542 97.5203C93.877 98.0039 94.342 99.2272 93.8707 100.258C93.8252 100.36 93.7695 100.5 93.7012 100.674C92.9511 102.542 90.9613 107.509 85.5536 109.635C83.9338 110.272 82.1567 110.59 80.2328 110.59Z" fill="#91CF96"/>
<path d="M72.0443 87.8417C69.0171 87.8417 65.7294 87.4037 62.1877 86.5254C61.0906 86.2527 60.4169 85.1492 60.6753 84.0479C66.1159 60.9007 89.7964 65.7629 92.4806 66.391C93.0138 66.5172 93.4766 66.8496 93.7638 67.3146C94.0531 67.7817 94.1439 68.3415 94.02 68.8767L93.9311 69.2775C92.4227 76.394 89.16 81.5681 84.2315 84.6533C80.8387 86.7777 76.7597 87.8417 72.0443 87.8417Z" fill="#91CF96"/>
<path d="M72.3406 58.0045C69.6638 59.418 66.552 60.5659 63.01 61.443C61.9125 61.7142 60.8015 61.053 60.5157 59.9585C54.5182 36.9492 77.7289 30.1912 80.3958 29.4933C80.9262 29.3559 81.4907 29.4338 81.9617 29.7108C82.4357 29.9887 82.7775 30.4414 82.9177 30.9725L83.0263 31.3684C85.0155 38.3658 84.5463 44.4647 81.6288 49.4943C79.6206 52.9571 76.5104 55.8027 72.3406 58.0045Z" fill="#91CF96"/>
<path d="M54.8201 120.059C54.4049 120.059 53.9874 119.935 53.6237 119.677C52.6938 119.015 52.4769 117.726 53.136 116.796C53.8097 115.848 69.4499 93.2853 55.0185 69.4746C54.4274 68.4973 54.7373 67.2284 55.7149 66.6354C56.6903 66.0402 57.9611 66.3586 58.5519 67.3318C74.4133 93.5043 56.684 118.939 56.5021 119.193C56.0992 119.757 55.4648 120.059 54.8201 120.059Z" fill="#5ABA63"/>
<path d="M56.8876 70.4697C56.2924 70.4697 55.7035 70.2135 55.2945 69.7195C51.7857 65.4753 48.0394 62.353 43.5017 59.8877C42.4994 59.3421 42.1275 58.0878 42.6731 57.0835C43.2186 56.0835 44.4708 55.7115 45.475 56.2549C50.4921 58.9803 54.6227 62.423 58.4785 67.0868C59.2059 67.967 59.0819 69.2688 58.2037 69.9963C57.8174 70.3147 57.3525 70.4697 56.8876 70.4697Z" fill="#5ABA63"/>
<path d="M58.748 112.807C58.2274 112.807 57.7046 112.61 57.3016 112.216C56.4875 111.418 56.473 110.11 57.2728 109.294C60.2857 106.217 63.8521 105.134 68.3691 103.762L68.7307 103.653C69.8196 103.316 70.9769 103.938 71.3096 105.029C71.6401 106.122 71.0243 107.275 69.9334 107.606L69.5697 107.717C65.4638 108.963 62.4987 109.864 60.2237 112.187C59.8205 112.598 59.2832 112.807 58.748 112.807Z" fill="#5ABA63"/>
<path d="M69.2635 107.664C68.5092 107.664 67.782 107.249 67.4161 106.53C66.9016 105.511 67.3108 104.269 68.3295 103.752C71.6748 102.062 74.9461 100.967 78.3224 100.405C79.4547 100.217 80.5126 100.977 80.7008 102.103C80.8868 103.229 80.1264 104.294 79.0002 104.479C75.9999 104.98 73.2019 105.92 70.1934 107.443C69.896 107.592 69.5756 107.664 69.2635 107.664Z" fill="#5ABA63"/>
<path d="M62.4188 100.798C62.0447 100.798 61.6686 100.697 61.3277 100.486C60.5632 100.008 59.8358 99.5435 59.1374 99.0973C57.2322 97.8802 55.5894 96.8305 53.8704 95.9667C52.8516 95.4543 52.4405 94.2104 52.955 93.1917C53.4674 92.173 54.7094 91.7577 55.7301 92.2742C57.6353 93.235 59.4454 94.3901 61.3608 95.6154C62.049 96.0534 62.7619 96.5079 63.514 96.977C64.4831 97.5824 64.7786 98.8573 64.1754 99.8244C63.7826 100.453 63.1089 100.798 62.4188 100.798Z" fill="#5ABA63"/>
<path d="M62.6882 86.5867C61.9876 86.5867 61.3038 86.2313 60.9173 85.5867C60.3262 84.6093 60.6425 83.3405 61.6198 82.7516C63.2088 81.7929 64.7029 80.8093 66.1514 79.8566C70.307 77.1208 74.2308 74.5378 79.1571 73.3144C80.2543 73.0396 81.3847 73.7133 81.6614 74.8228C81.9341 75.9304 81.2607 77.0503 80.1531 77.3271C75.913 78.3788 72.4415 80.6623 68.4223 83.3092C66.9282 84.2907 65.393 85.3012 63.7524 86.2889C63.4195 86.4918 63.0516 86.5867 62.6882 86.5867Z" fill="#5ABA63"/>
<path d="M60.6577 72.4165C60.1483 72.8974 59.407 73.1083 58.6835 72.9049C57.5827 72.6 56.9417 71.4603 57.248 70.3611C57.7454 68.5732 58.1566 66.8323 58.5559 65.1452C59.6995 60.3032 64.5 50.1546 68.0212 46.4205C68.6303 45.4674 69.9147 45.1813 70.8777 45.7981C71.8363 46.4163 72.1154 47.693 71.5 48.6546C68.5 52.6546 63.6828 61.413 62.5773 66.0969C62.1646 67.8362 61.742 69.6249 61.2271 71.4693C61.1243 71.8454 60.922 72.167 60.6577 72.4165Z" fill="#5ABA63"/>
<path d="M34.1333 167.588H87.8586V126.261H34.1333V167.588Z" fill="#AF8066"/>
<path d="M87.8589 144.858L73.3942 159.323L60.9961 146.925L48.598 159.323L34.1335 144.858V132.46L48.598 146.925L60.9961 134.526L73.3942 146.925L87.8589 132.46V144.858Z" fill="#D9AA94"/>
<path d="M32.0671 126.261H89.925V117.996H32.0671V126.261Z" fill="#D9AA94"/>
</svg>
