<svg width="124" height="168" viewBox="0 0 124 168" fill="none" xmlns="http://www.w3.org/2000/svg">
<g clip-path="url(#clip0_40_514)">
<path d="M56.2034 78.8191C46.8615 78.8191 39.8648 76.5317 35.3993 72.0125C29.7787 66.3238 29.9564 58.9346 30.0165 56.5066L30.0247 56.085C30.0247 54.9444 30.9483 54.0187 32.091 54.0187L32.4257 54.0124C43.553 53.7581 49.7273 57.4529 52.9424 60.5958C56.9304 64.4949 58.9533 69.9295 58.9533 76.7485C58.9533 77.8788 58.0421 78.8004 56.9117 78.8147C56.6747 78.8191 56.4369 78.8191 56.2034 78.8191Z" fill="#91CF96"/>
<path d="M54.9764 110.183C51.3686 110.183 48.2546 109.373 45.6674 107.759C40.0408 104.244 38.7906 98.1626 38.3794 96.1624L38.3174 95.869C38.0673 94.7676 38.7472 93.6705 39.8444 93.4017L40.02 93.3583C46.4733 91.6909 52.4058 92.228 56.7243 94.8606C60.6069 97.2267 63.2001 101.184 64.4358 106.618C64.6838 107.711 64.0164 108.8 62.9335 109.079C60.0638 109.815 57.4086 110.183 54.9764 110.183Z" fill="#91CF96"/>
<path d="M80.2328 118.935C76.749 118.935 72.7857 117.892 68.378 115.811C67.3574 115.327 66.9109 114.113 67.3821 113.083C69.7213 107.967 72.9964 104.669 77.1168 103.279C81.5574 101.783 86.7295 102.59 92.4968 105.678L92.8542 105.866C93.877 106.349 94.342 107.573 93.8707 108.604C93.8252 108.705 93.7695 108.845 93.7012 109.019C92.9511 110.887 90.9613 115.854 85.5536 117.981C83.9338 118.617 82.1567 118.935 80.2328 118.935Z" fill="#91CF96"/>
<path d="M72.0443 96.1871C69.0171 96.1871 65.7294 95.7491 62.1877 94.8708C61.0906 94.5981 60.4169 93.4947 60.6753 92.3933C66.1159 69.2461 89.7964 74.1083 92.4806 74.7364C93.0138 74.8626 93.4766 75.1951 93.7638 75.66C94.0531 76.1271 94.1439 76.6869 94.02 77.2221L93.9311 77.6229C92.4227 84.7394 89.16 89.9135 84.2315 92.9987C80.8387 95.1231 76.7597 96.1871 72.0443 96.1871Z" fill="#91CF96"/>
<path d="M72.3406 66.35C69.6638 67.7635 66.552 68.9113 63.01 69.7884C61.9125 70.0596 60.8015 69.3984 60.5157 68.3039C54.5182 45.2947 77.7289 38.5367 80.3958 37.8387C80.9262 37.7013 81.4907 37.7792 81.9617 38.0562C82.4357 38.3342 82.7775 38.7868 82.9177 39.318L83.0263 39.7138C85.0155 46.7112 84.5463 52.8101 81.6288 57.8397C79.6206 61.3025 76.5104 64.1481 72.3406 66.35Z" fill="#91CF96"/>
<path d="M54.82 128.404C54.4047 128.404 53.9873 128.28 53.6236 128.022C52.6937 127.361 52.4767 126.071 53.1359 125.142C53.8095 124.193 69.4498 101.631 55.0183 77.82C54.4273 76.8426 54.7372 75.5738 55.7148 74.9807C56.6902 74.3855 57.961 74.704 58.5518 75.6772C74.4132 101.85 56.6839 127.284 56.502 127.539C56.0991 128.103 55.4646 128.404 54.82 128.404Z" fill="#5ABA63"/>
<path d="M56.8875 78.815C56.2922 78.815 55.7033 78.5588 55.2943 78.0648C51.7856 73.8206 48.0392 70.6983 43.5016 68.233C42.4993 67.6874 42.1274 66.433 42.6729 65.4288C43.2185 64.4288 44.4707 64.0568 45.4749 64.6002C50.492 67.3256 54.6226 70.7683 58.4784 75.4321C59.2058 76.3123 59.0818 77.6141 58.2035 78.3415C57.8173 78.66 57.3524 78.815 56.8875 78.815Z" fill="#5ABA63"/>
<path d="M58.7479 121.152C58.2273 121.152 57.7044 120.956 57.3015 120.561C56.4874 119.763 56.4729 118.456 57.2727 117.639C60.2855 114.563 63.8519 113.48 68.369 112.108L68.7306 111.998C69.8195 111.661 70.9767 112.283 71.3095 113.374C71.64 114.467 71.0242 115.62 69.9333 115.951L69.5696 116.063C65.4637 117.309 62.4986 118.21 60.2235 120.532C59.8204 120.943 59.283 121.152 58.7479 121.152Z" fill="#5ABA63"/>
<path d="M69.2633 116.009C68.509 116.009 67.7818 115.594 67.4159 114.875C66.9013 113.856 67.3106 112.614 68.3293 112.098C71.6746 110.407 74.9458 109.312 78.3221 108.75C79.4544 108.562 80.5124 109.323 80.7005 110.449C80.8865 111.575 80.1262 112.639 78.9999 112.825C75.9997 113.325 73.2016 114.265 70.1931 115.788C69.8958 115.937 69.5754 116.009 69.2633 116.009Z" fill="#5ABA63"/>
<path d="M62.4187 109.143C62.0445 109.143 61.6685 109.042 61.3275 108.831C60.5631 108.354 59.8356 107.889 59.1373 107.443C57.232 106.226 55.5893 105.176 53.8703 104.312C52.8515 103.8 52.4404 102.556 52.9549 101.537C53.4673 100.518 54.7093 100.103 55.73 100.619C57.6352 101.58 59.4453 102.735 61.3607 103.961C62.0489 104.399 62.7618 104.853 63.5139 105.322C64.483 105.928 64.7784 107.203 64.1752 108.17C63.7825 108.798 63.1088 109.143 62.4187 109.143Z" fill="#5ABA63"/>
<path d="M62.6879 94.9321C61.9874 94.9321 61.3035 94.5766 60.9171 93.932C60.326 92.9547 60.6422 91.6858 61.6196 91.0969C63.2086 90.1382 64.7026 89.1546 66.1512 88.202C70.3067 85.4661 74.2305 82.8831 79.1569 81.6598C80.254 81.3849 81.3844 82.0586 81.6612 83.1681C81.9339 84.2757 81.2604 85.3957 80.1528 85.6725C75.9128 86.7241 72.4413 89.0076 68.4221 91.6546C66.928 92.636 65.3927 93.6465 63.7522 94.6342C63.4192 94.8371 63.0514 94.9321 62.6879 94.9321Z" fill="#5ABA63"/>
<path d="M60.6574 80.7619C60.148 81.2428 59.4067 81.4537 58.6832 81.2503C57.5825 80.9454 56.9414 79.8057 57.2478 78.7065C57.7451 76.9186 58.1563 75.1777 58.5557 73.4906C59.6993 68.6486 64.4998 58.5 68.0209 54.7658C68.6301 53.8128 69.9145 53.5267 70.8774 54.1435C71.836 54.7617 72.1151 56.0384 71.4998 57C68.4998 61 63.6826 69.7584 62.5771 74.4423C62.1644 76.1816 61.7417 77.9703 61.2268 79.8147C61.124 80.1908 60.9217 80.5124 60.6574 80.7619Z" fill="#5ABA63"/>
<path d="M34.1333 175.934H87.8586V134.607H34.1333V175.934Z" fill="#AF8066"/>
<path d="M87.8586 153.204L73.394 167.668L60.9958 155.27L48.5977 167.668L34.1333 153.204V140.806L48.5977 155.27L60.9958 142.872L73.394 155.27L87.8586 140.806V153.204Z" fill="#D9AA94"/>
<path d="M32.067 134.607H89.9249V126.341H32.067V134.607Z" fill="#D9AA94"/>
</g>
<defs>
<clipPath id="clip0_40_514">
<rect width="124" height="168" fill="white"/>
</clipPath>
</defs>
</svg>
