<svg width="124" height="168" viewBox="0 0 124 168" fill="none" xmlns="http://www.w3.org/2000/svg">
<path d="M56.2034 70.8191C46.8615 70.8191 39.8648 68.5317 35.3993 64.0125C29.7787 58.3238 29.9564 50.9346 30.0165 48.5066L30.0247 48.085C30.0247 46.9444 30.9483 46.0187 32.091 46.0187L32.4257 46.0124C43.553 45.7581 49.7273 49.4529 52.9424 52.5958C56.9304 56.4949 58.9533 61.9295 58.9533 68.7485C58.9533 69.8788 58.0421 70.8004 56.9117 70.8147C56.6747 70.8191 56.4369 70.8191 56.2034 70.8191Z" fill="#91CF96"/>
<path d="M54.9764 102.183C51.3686 102.183 48.2546 101.373 45.6674 99.7588C40.0408 96.244 38.7906 90.1626 38.3794 88.1624L38.3174 87.8689C38.0673 86.7676 38.7472 85.6705 39.8444 85.4017L40.02 85.3583C46.4733 83.6909 52.4058 84.228 56.7243 86.8606C60.6069 89.2267 63.2001 93.1837 64.4358 98.6183C64.6838 99.7113 64.0164 100.8 62.9335 101.079C60.0638 101.815 57.4086 102.183 54.9764 102.183Z" fill="#91CF96"/>
<path d="M80.2328 110.935C76.749 110.935 72.7857 109.892 68.378 107.811C67.3574 107.327 66.9109 106.113 67.3821 105.083C69.7213 99.9671 72.9964 96.6692 77.1168 95.2785C81.5574 93.7825 86.7295 94.5903 92.4968 97.6775L92.8542 97.8657C93.877 98.3492 94.342 99.5726 93.8707 100.604C93.8252 100.705 93.7695 100.845 93.7012 101.019C92.9511 102.887 90.9613 107.854 85.5536 109.981C83.9338 110.617 82.1567 110.935 80.2328 110.935Z" fill="#91CF96"/>
<path d="M72.0443 88.1871C69.0171 88.1871 65.7294 87.7491 62.1877 86.8708C61.0906 86.5981 60.4169 85.4946 60.6753 84.3933C66.1159 61.2461 89.7964 66.1083 92.4806 66.7364C93.0138 66.8626 93.4766 67.195 93.7638 67.66C94.0531 68.1271 94.1439 68.6869 94.02 69.2221L93.9311 69.6229C92.4227 76.7394 89.16 81.9135 84.2315 84.9987C80.8387 87.1231 76.7597 88.1871 72.0443 88.1871Z" fill="#91CF96"/>
<path d="M72.3406 58.35C69.6638 59.7635 66.552 60.9113 63.01 61.7884C61.9125 62.0596 60.8015 61.3984 60.5157 60.3039C54.5182 37.2947 77.7289 30.5367 80.3958 29.8387C80.9262 29.7013 81.4907 29.7792 81.9617 30.0562C82.4357 30.3342 82.7775 30.7868 82.9177 31.318L83.0263 31.7138C85.0155 38.7112 84.5463 44.8101 81.6288 49.8397C79.6206 53.3025 76.5104 56.1481 72.3406 58.35Z" fill="#91CF96"/>
<path d="M54.8201 120.404C54.4049 120.404 53.9874 120.28 53.6237 120.022C52.6938 119.361 52.4769 118.071 53.136 117.142C53.8097 116.193 69.4499 93.6307 55.0185 69.82C54.4274 68.8426 54.7373 67.5738 55.7149 66.9807C56.6903 66.3855 57.9611 66.704 58.5519 67.6772C74.4133 93.8496 56.684 119.284 56.5021 119.539C56.0992 120.103 55.4648 120.404 54.8201 120.404Z" fill="#5ABA63"/>
<path d="M56.8876 70.815C56.2924 70.815 55.7035 70.5588 55.2945 70.0648C51.7857 65.8206 48.0394 62.6983 43.5017 60.233C42.4994 59.6874 42.1275 58.433 42.6731 57.4288C43.2186 56.4288 44.4708 56.0568 45.475 56.6002C50.4921 59.3256 54.6227 62.7683 58.4785 67.4321C59.2059 68.3123 59.0819 69.6141 58.2037 70.3415C57.8174 70.66 57.3525 70.815 56.8876 70.815Z" fill="#5ABA63"/>
<path d="M58.748 113.152C58.2274 113.152 57.7046 112.956 57.3016 112.561C56.4875 111.763 56.473 110.456 57.2728 109.639C60.2857 106.563 63.8521 105.48 68.3691 104.108L68.7307 103.998C69.8196 103.661 70.9769 104.283 71.3096 105.374C71.6401 106.467 71.0243 107.62 69.9334 107.951L69.5697 108.063C65.4638 109.309 62.4987 110.21 60.2237 112.532C59.8205 112.943 59.2832 113.152 58.748 113.152Z" fill="#5ABA63"/>
<path d="M69.2635 108.009C68.5092 108.009 67.782 107.594 67.4161 106.875C66.9016 105.856 67.3108 104.614 68.3295 104.098C71.6748 102.407 74.9461 101.312 78.3224 100.75C79.4547 100.562 80.5126 101.323 80.7008 102.449C80.8868 103.575 80.1264 104.639 79.0002 104.825C75.9999 105.325 73.2019 106.265 70.1934 107.788C69.896 107.937 69.5756 108.009 69.2635 108.009Z" fill="#5ABA63"/>
<path d="M62.4188 101.143C62.0447 101.143 61.6686 101.042 61.3277 100.831C60.5632 100.354 59.8358 99.8888 59.1374 99.4426C57.2322 98.2255 55.5894 97.1758 53.8704 96.312C52.8516 95.7996 52.4405 94.5557 52.955 93.537C53.4674 92.5182 54.7094 92.103 55.7301 92.6195C57.6353 93.5803 59.4454 94.7354 61.3608 95.9607C62.049 96.3987 62.7619 96.8532 63.514 97.3223C64.4831 97.9277 64.7786 99.2026 64.1754 100.17C63.7826 100.798 63.1089 101.143 62.4188 101.143Z" fill="#5ABA63"/>
<path d="M62.6882 86.9321C61.9876 86.9321 61.3038 86.5766 60.9173 85.932C60.3262 84.9547 60.6425 83.6858 61.6198 83.0969C63.2088 82.1382 64.7029 81.1546 66.1514 80.202C70.307 77.4661 74.2308 74.8831 79.1571 73.6598C80.2543 73.3849 81.3847 74.0586 81.6614 75.1681C81.9341 76.2757 81.2607 77.3957 80.1531 77.6725C75.913 78.7241 72.4415 81.0076 68.4223 83.6546C66.9282 84.636 65.393 85.6465 63.7524 86.6342C63.4195 86.8371 63.0516 86.9321 62.6882 86.9321Z" fill="#5ABA63"/>
<path d="M60.6577 72.7619C60.1483 73.2428 59.407 73.4537 58.6835 73.2503C57.5827 72.9454 56.9417 71.8057 57.248 70.7065C57.7454 68.9186 58.1566 67.1777 58.5559 65.4906C59.6995 60.6486 64.5 50.5 68.0212 46.7658C68.6303 45.8128 69.9147 45.5267 70.8777 46.1435C71.8363 46.7617 72.1154 48.0384 71.5 49C68.5 53 63.6828 61.7584 62.5773 66.4423C62.1646 68.1816 61.742 69.9703 61.2271 71.8147C61.1243 72.1908 60.922 72.5124 60.6577 72.7619Z" fill="#5ABA63"/>
<path d="M34.1333 167.934H87.8586V126.607H34.1333V167.934Z" fill="#AF8066"/>
<path d="M87.8589 145.204L73.3942 159.668L60.9961 147.27L48.598 159.668L34.1335 145.204V132.806L48.598 147.27L60.9961 134.872L73.3942 147.27L87.8589 132.806V145.204Z" fill="#D9AA94"/>
<path d="M32.0671 126.607H89.925V118.341H32.0671V126.607Z" fill="#D9AA94"/>
<path d="M62.5775 69C58.195 69 54.6075 66.1749 53.5526 62.235C50.4825 63.2701 46.9602 62.8301 44.0651 59.9349C41.375 57.2449 40.6376 53.8198 41.815 50.5725C37.8875 49.4701 35 45.8551 35 41.5801C35 37.3001 37.8901 33.6852 41.8224 32.5851C40.6974 29.5526 41.0525 26.08 44.0648 23.0651C47.0774 20.0551 50.5496 19.7 53.5822 20.8227C54.6826 16.8925 58.2998 14 62.5775 14C66.8475 14 70.4601 16.8825 71.5675 20.8025C72.215 20.5625 72.8774 20.3999 73.5424 20.3123C75.4125 20.0674 78.2174 20.3525 80.9326 23.0648C83.6402 25.7724 84.4175 29.2898 83.2875 32.5672C87.2001 33.6398 90 37.2172 90 41.5798C90 45.9474 87.1951 49.5249 83.2749 50.5924C84.3674 53.8201 83.5948 57.2751 80.9323 59.9349C78.2698 62.5974 74.8172 63.37 71.5898 62.2775C70.5249 66.1951 66.9451 69 62.5775 69Z" fill="#FFCC5D"/>
<path d="M62.5773 51.5001C57.0622 51.5001 52.5774 47.015 52.5774 41.5001C52.5774 35.9853 57.0625 31.5002 62.5773 31.5002C68.0922 31.5002 72.5772 35.9853 72.5772 41.5001C72.5772 47.015 68.0922 51.5001 62.5773 51.5001Z" fill="white"/>
</svg>
